<svg version="1.2" xmlns="http://www.w3.org/2000/svg" viewBox="0 0 602 488" width="602" height="488">
	<title>cta__decor1</title>
	<style>
		.s0 { fill: #5d3bee } 
	</style>
	<g style="opacity: .05">
		<path fill-rule="evenodd" class="s0" d="m342.6-22.5l35.6-37c13.7-14.2 36-14.3 49.8 0 13.7 14.3 13.7 37.4 0 51.6l-35.7 37c-13.7 14.3-36 14.3-49.7 0-13.8-14.2-13.8-37.3 0-51.6z"/>
		<path fill-rule="evenodd" class="s0" d="m96.2 238.4l176-182.6c13.7-14.3 36-14.3 49.8 0 13.7 14.2 13.7 37.3 0 51.6l-176 182.6c-13.7 14.2-36 14.2-49.7 0-13.8-14.3-13.8-37.4-0.1-51.6z"/>
		<path fill-rule="evenodd" class="s0" d="m12.5 498.6l518-537.6c13.8-14.3 36-14.3 49.8 0 13.7 14.2 13.7 37.4 0 51.6l-518.1 537.6c-13.7 14.3-36 14.3-49.7 0-13.8-14.2-13.8-37.4 0-51.6z"/>
		<path fill-rule="evenodd" class="s0" d="m354.7 306.9l161.9-168c13.8-14.3 36.1-14.3 49.8 0 13.7 14.2 13.7 37.3 0 51.6l-162 168.1c-13.7 14.2-36 14.2-49.7 0-13.8-14.3-13.8-37.4 0-51.7z"/>
	</g>
</svg>